<svg width="37" height="33" viewBox="0 0 37 33" fill="none" xmlns="http://www.w3.org/2000/svg">
<path fill-rule="evenodd" clip-rule="evenodd" d="M37 0H0V33H3.175L15.912 0.0999978H21.082L33.725 33H37V0ZM28.32 33L25.2193 24.822H11.4558L8.345 33H28.32ZM13.3151 19.934H23.3661L20.8 13.166C20.706 12.9467 20.518 12.414 20.236 11.568C19.9853 10.722 19.6877 9.782 19.343 8.748L18.403 5.928C18.3883 5.88212 18.3738 5.83711 18.3595 5.79294C18.3128 5.92759 18.2646 6.06661 18.215 6.21C17.9643 7.02466 17.6823 7.88633 17.369 8.795C17.087 9.70366 16.805 10.5653 16.523 11.38C16.241 12.1633 16.006 12.8213 15.818 13.354L13.3151 19.934Z" fill="#FF5C00"/>
</svg>
