<svg width="64" height="64" viewBox="0 0 64 64" fill="none" xmlns="http://www.w3.org/2000/svg">
<path d="M32.0378 5.20801C30.5658 5.20801 29.3711 6.40268 29.3711 7.87468V13.208C29.3711 14.68 30.5658 15.8747 32.0378 15.8747C33.5098 15.8747 34.7044 14.68 34.7044 13.208V7.87468C34.7044 6.40268 33.5098 5.20801 32.0378 5.20801ZM15.0378 12.208C14.3551 12.208 13.7258 12.52 13.2058 13.0427C12.1631 14.0827 12.1631 15.752 13.2058 16.792L16.7871 20.4587C17.8298 21.4987 19.5817 21.5013 20.6217 20.4587C21.6617 19.416 21.6644 17.664 20.6217 16.624L16.9551 13.0427C16.4324 12.52 15.7204 12.208 15.0378 12.208ZM48.9551 12.2907C48.2724 12.2907 47.6431 12.52 47.1204 13.0427L43.4538 16.624C42.4138 17.6667 42.4138 19.416 43.4538 20.4587C44.4964 21.4987 46.2457 21.4987 47.2884 20.4587L50.8697 16.792C51.9124 15.7493 51.9124 14.0827 50.8697 13.0427C50.3497 12.52 49.6377 12.2907 48.9551 12.2907ZM32.0378 18.5414C24.6751 18.5414 18.7044 24.512 18.7044 31.8747C18.7044 39.2374 24.6751 45.208 32.0378 45.208C39.4004 45.208 45.3711 39.2374 45.3711 31.8747C45.3711 24.512 39.4004 18.5414 32.0378 18.5414ZM32.0378 23.8747C36.4564 23.8747 40.0378 27.456 40.0378 31.8747C40.0378 36.2934 36.4564 39.8747 32.0378 39.8747C27.6191 39.8747 24.0378 36.2934 24.0378 31.8747C24.0378 27.456 27.6191 23.8747 32.0378 23.8747ZM8.03776 29.208C6.56576 29.208 5.37109 30.4027 5.37109 31.8747C5.37109 33.3467 6.56576 34.5414 8.03776 34.5414H13.3711C14.8431 34.5414 16.0378 33.3467 16.0378 31.8747C16.0378 30.4027 14.8431 29.208 13.3711 29.208H8.03776ZM50.7044 29.208C49.2324 29.208 48.0378 30.4027 48.0378 31.8747C48.0378 33.3467 49.2324 34.5414 50.7044 34.5414H56.0378C57.5098 34.5414 58.7044 33.3467 58.7044 31.8747C58.7044 30.4027 57.5098 29.208 56.0378 29.208H50.7044ZM18.7044 42.5414C18.0218 42.5387 17.3098 42.7707 16.7871 43.2907L13.1204 46.9574C12.0778 47.9974 12.0831 49.664 13.1204 50.7067C14.1604 51.752 15.9097 51.7467 16.9551 50.7067L20.6217 47.1254C21.6644 46.0854 21.6591 44.3361 20.6217 43.2907C20.1017 42.7707 19.3871 42.544 18.7044 42.5414ZM45.3711 42.5414C44.6884 42.5414 43.9738 42.7707 43.4538 43.2907C42.4138 44.3334 42.4111 46.0854 43.4538 47.1254L47.2058 50.792C48.2458 51.832 49.9151 51.8347 50.9551 50.792C51.9951 49.7494 51.9977 47.9974 50.9551 46.9574L47.2884 43.2907C46.7657 42.7707 46.0538 42.5414 45.3711 42.5414ZM32.0378 47.8747C30.5658 47.8747 29.3711 49.0694 29.3711 50.5414V55.8747C29.3711 57.3467 30.5658 58.5414 32.0378 58.5414C33.5098 58.5414 34.7044 57.3467 34.7044 55.8747V50.5414C34.7044 49.0694 33.5098 47.8747 32.0378 47.8747Z" fill="black"/>
</svg>
